<?xml version="1.0" encoding="UTF-8" standalone="no"?>
<svg
   viewBox="0 0 512 512"
   width="512"
   height="512"
   version="1.1"
   id="svg178"
   sodipodi:docname="e-noflower.svg"
   inkscape:version="1.4.2 (ebf0e940d0, 2025-05-08)"
   xmlns:inkscape="http://www.inkscape.org/namespaces/inkscape"
   xmlns:sodipodi="http://sodipodi.sourceforge.net/DTD/sodipodi-0.dtd"
   xmlns="http://www.w3.org/2000/svg"
   xmlns:svg="http://www.w3.org/2000/svg">
  <defs
     id="defs178" />
  <sodipodi:namedview
     id="namedview178"
     pagecolor="#ffffff"
     bordercolor="#000000"
     borderopacity="0.25"
     inkscape:showpageshadow="2"
     inkscape:pageopacity="0.0"
     inkscape:pagecheckerboard="0"
     inkscape:deskcolor="#d1d1d1"
     inkscape:zoom="2.0000001"
     inkscape:cx="286.74999"
     inkscape:cy="297.99999"
     inkscape:window-width="1920"
     inkscape:window-height="1080"
     inkscape:window-x="0"
     inkscape:window-y="0"
     inkscape:window-maximized="0"
     inkscape:current-layer="svg178" />
  <g
     fill="None"
     fill-opacity="0.0"
     stroke="#000002"
     stroke-opacity="0.00"
     stroke-width="0.3"
     id="g1">
    <path
       d=" M 0.00 512.00  L 108.00 512.00 C 110.70 504.18 114.94 496.26 118.77 488.77 C 122.60 481.28 126.48 473.76 130.31 466.31 C 134.13 458.85 139.53 452.46 142.92 444.92 C 146.31 437.38 152.67 431.29 155.77 423.77 C 158.87 416.25 165.84 409.65 167.77 401.77 C 169.70 393.89 181.15 390.00 183.00 383.00 C 182.18 375.23 180.50 368.29 178.00 361.00 C 170.19 360.11 160.99 357.65 157.08 349.92 C 153.17 342.19 148.93 337.49 141.25 333.75 C 133.58 330.00 130.67 321.03 130.01 312.99 C 129.35 304.95 129.95 291.46 132.98 283.98 C 136.00 276.49 134.53 264.58 139.00 258.00 C 121.56 256.28 101.04 238.36 95.07 220.93 C 89.10 203.50 96.92 172.87 109.30 158.30 C 121.69 143.74 132.73 127.22 143.77 111.77 C 154.81 96.32 167.98 81.25 185.70 72.70 C 203.41 64.14 227.72 54.38 248.00 53.00 C 253.52 52.62 259.48 52.70 265.00 53.00 C 289.66 54.34 315.00 65.85 335.08 78.92 C 355.16 91.98 365.83 117.58 392.00 119.00 C 395.57 119.19 399.43 119.24 403.00 119.00 C 405.00 118.86 406.77 117.41 409.00 118.00 C 406.91 129.46 393.44 133.30 383.00 132.00 C 393.87 156.84 387.91 192.52 402.77 215.23 C 417.63 237.94 420.54 276.25 391.00 285.00 C 399.05 278.72 398.61 267.12 395.00 258.00 C 390.94 269.80 387.16 282.95 375.92 290.92 C 364.68 298.89 351.14 306.93 337.00 301.00 C 334.95 305.73 331.73 309.69 329.00 314.00 C 330.59 313.69 332.38 314.17 334.00 314.00 C 336.28 313.76 339.09 313.92 342.00 313.00 C 344.91 312.08 348.82 315.19 348.00 315.00 C 365.58 314.12 374.60 333.99 390.08 340.92 C 405.56 347.85 419.45 357.04 430.92 370.08 C 442.38 383.12 447.26 399.60 455.92 415.08 C 464.59 430.55 468.96 446.63 477.92 463.08 C 486.89 479.52 477.47 498.17 466.00 512.00 L 512.00 512.00 L 512.00 0.00 L 0.00 0.00 L 0.00 512.00 Z"
       id="path1" />
  </g>
  <g
     fill="None"
     fill-opacity="0.0"
     stroke="#5E4F48"
     stroke-opacity="0.22"
     stroke-width="0.3"
     id="g3">
    <path
       d=" M 265.00 53.00  C 259.48 52.70 253.52 52.62 248.00 53.00 C 252.88 53.14 260.03 53.21 265.00 53.00 Z"
       id="path3" />
  </g>
  <g
     fill="None"
     fill-opacity="0.0"
     stroke="#D1B1A8"
     stroke-opacity="0.32"
     stroke-width="0.3"
     id="g32">
    <path
       d=" M 403.00 119.00  C 399.43 119.24 395.57 119.19 392.00 119.00 C 393.10 119.32 395.03 121.77 397.99 120.99 C 400.96 120.21 400.73 119.69 403.00 119.00 Z"
       id="path32" />
  </g>
  <g
     fill="None"
     fill-opacity="0.0"
     stroke="#F1E8E9"
     stroke-opacity="1.00"
     stroke-width="0.3"
     id="g39">
    <path
       d=" M 247.00 136.00  C 246.96 138.36 248.00 142.87 248.00 146.00 C 248.00 149.67 248.00 153.33 248.00 157.00 C 248.00 160.89 247.62 164.80 247.00 168.00 C 245.79 183.27 242.56 198.13 234.00 211.00 C 231.83 214.26 228.23 217.90 225.00 220.00 C 201.12 239.03 180.59 204.78 180.00 184.00 C 180.00 186.67 180.00 189.33 180.00 192.00 C 180.00 197.67 180.00 203.33 180.00 209.00 C 180.00 213.63 178.82 218.88 183.00 221.00 C 187.99 221.05 189.97 222.87 194.74 224.26 C 199.52 225.64 198.59 229.65 199.00 231.00 C 201.13 238.06 206.26 244.11 205.00 253.00 C 203.74 261.89 199.27 267.78 194.23 259.77 C 189.19 251.76 186.84 249.74 185.00 241.00 C 184.17 237.06 184.49 233.03 184.00 229.00 C 178.15 228.86 173.37 232.50 168.00 234.00 C 186.26 248.15 181.24 280.29 199.08 292.92 C 216.93 305.54 240.86 319.76 262.00 312.00 C 262.76 314.29 262.81 316.81 264.00 319.00 C 264.54 324.30 261.69 328.71 258.00 332.00 C 257.20 327.46 264.33 322.09 261.00 320.00 C 258.09 321.18 245.84 325.83 247.00 331.00 C 253.24 333.57 254.78 335.49 262.00 335.00 C 264.59 334.54 267.81 334.12 271.00 334.00 C 276.22 333.80 280.92 332.86 286.00 332.00 C 288.67 331.05 292.27 328.47 295.00 327.00 C 300.52 324.02 306.66 316.69 307.00 310.00 C 307.02 309.97 301.37 313.40 300.00 314.00 C 293.95 315.02 286.58 321.08 281.00 316.00 C 300.20 311.42 302.91 292.00 306.67 274.67 C 310.44 257.34 313.36 231.76 310.00 213.00 C 309.64 211.77 308.25 209.87 309.00 208.00 C 307.72 207.72 305.50 208.76 305.00 207.00 C 303.34 206.91 301.66 207.07 300.00 207.00 C 300.12 211.72 302.64 217.82 300.00 222.00 C 299.64 228.59 295.02 242.92 285.99 241.99 C 276.97 241.07 273.48 227.02 273.00 220.00 C 272.67 215.11 273.39 210.66 274.00 206.00 C 271.04 206.36 267.85 208.03 265.00 209.00 C 262.03 210.02 258.97 210.93 256.00 212.00 C 256.67 210.80 257.64 209.42 259.00 209.00 C 259.45 208.20 259.94 207.11 261.00 207.00 C 261.16 203.24 257.11 207.11 255.00 206.00 C 260.94 200.85 269.09 198.50 277.00 198.00 C 281.01 197.35 285.07 197.44 289.00 198.00 C 293.97 198.71 298.81 198.71 303.00 201.00 C 303.49 200.95 304.00 201.00 304.00 201.00 C 305.47 201.20 306.46 201.98 308.00 202.00 C 310.07 182.83 290.86 175.54 279.25 164.75 C 267.64 153.96 257.72 143.42 247.00 132.00 C 246.87 133.32 247.17 134.69 247.00 136.00 Z"
       id="path39" />
  </g>
  <g
     fill="None"
     fill-opacity="0.0"
     stroke="#D1B1A8"
     stroke-opacity="1.00"
     stroke-width="0.3"
     id="g41">
    <path
       d=" M 248.00 146.00  C 248.00 142.87 246.96 138.36 247.00 136.00 C 246.54 139.49 247.73 143.24 248.00 146.00 Z"
       id="path41" />
  </g>
  <g
     fill="None"
     fill-opacity="0.0"
     stroke="#45434C"
     stroke-opacity="1.00"
     stroke-width="0.3"
     id="g45" />
  <g
     fill="None"
     fill-opacity="0.0"
     stroke="#D1B1A8"
     stroke-opacity="1.00"
     stroke-width="0.3"
     id="g50">
    <path
       d=" M 247.00 168.00  C 247.62 164.80 248.00 160.89 248.00 157.00 C 247.72 159.91 247.28 164.42 247.00 168.00 Z"
       id="path50" />
  </g>
  <g
     fill="None"
     fill-opacity="0.0"
     stroke="#D1B1A8"
     stroke-opacity="1.00"
     stroke-width="0.3"
     id="g52">
    <path
       d=" M 163.00 187.00  C 163.00 187.89 164.85 191.12 165.00 192.00 C 165.00 189.33 165.00 186.67 165.00 184.00 C 162.50 183.44 163.43 185.76 163.00 187.00 Z"
       id="path52" />
  </g>
  <g
     fill="None"
     fill-opacity="0.0"
     stroke="#D1B1A8"
     stroke-opacity="1.00"
     stroke-width="0.3"
     id="g53">
    <path
       d=" M 348.00 190.00  C 348.25 189.06 347.80 187.95 348.00 187.00 C 350.12 186.94 352.23 186.77 354.00 188.00 C 349.98 184.98 347.81 185.60 348.00 190.00 Z"
       id="path53" />
  </g>
  <g
     fill="None"
     fill-opacity="0.0"
     stroke="#F1E8E9"
     stroke-opacity="1.00"
     stroke-width="0.3"
     id="g54">
    <path
       d=" M 160.00 206.00  C 160.00 211.27 158.91 217.86 160.00 223.00 C 160.35 223.63 160.66 224.33 161.00 225.00 C 162.45 227.84 163.83 230.61 166.00 233.00 C 169.15 229.68 171.18 224.81 176.00 223.00 C 176.91 219.17 169.51 213.93 168.93 209.07 C 168.34 204.21 165.11 197.58 165.00 192.00 C 164.85 191.12 163.00 187.89 163.00 187.00 C 161.02 192.76 160.00 199.77 160.00 206.00 Z"
       id="path54" />
  </g>
  <g
     fill="None"
     fill-opacity="0.0"
     stroke="#F1E8E9"
     stroke-opacity="1.00"
     stroke-width="0.3"
     id="g55">
    <path
       d=" M 348.00 190.00  C 348.50 201.36 351.00 212.48 351.00 224.00 C 351.38 227.93 352.80 233.36 352.00 238.00 C 353.25 237.70 353.71 236.17 355.00 236.00 C 359.37 230.13 361.60 224.37 362.00 217.00 C 362.20 213.39 362.14 209.61 362.00 206.00 C 361.77 199.89 359.09 191.82 354.00 188.00 C 352.23 186.77 350.12 186.94 348.00 187.00 C 347.80 187.95 348.25 189.06 348.00 190.00 Z"
       id="path55" />
  </g>
  <g
     fill="None"
     fill-opacity="0.0"
     stroke="#5E4F48"
     stroke-opacity="1.00"
     stroke-width="0.3"
     id="g56">
    <path
       d=" M 119.00 189.00  C 112.73 204.59 113.43 227.06 129.00 238.00 C 117.57 224.89 116.15 206.04 119.00 189.00 Z"
       id="path56" />
  </g>
  <g
     fill="None"
     fill-opacity="0.0"
     stroke="#D1B1A8"
     stroke-opacity="1.00"
     stroke-width="0.3"
     id="g57">
    <path
       d=" M 180.00 209.00  C 180.00 203.33 180.00 197.67 180.00 192.00 C 179.49 197.28 179.48 203.65 180.00 209.00 Z"
       id="path57" />
  </g>
  <g
     fill="None"
     fill-opacity="0.0"
     stroke="#F1E8E9"
     stroke-opacity="1.00"
     stroke-width="0.3"
     id="g58">
    <path
       d=" M 215.00 219.00  C 223.72 216.24 229.61 203.94 228.00 196.00 C 225.37 204.42 220.39 211.88 215.00 219.00 Z"
       id="path58" />
  </g>
  <g
     fill="None"
     fill-opacity="0.0"
     stroke="#B49486"
     stroke-opacity="1.00"
     stroke-width="0.3"
     id="g59">
    <path
       d=" M 277.00 198.00  C 280.65 197.80 285.42 197.33 289.00 198.00 C 285.07 197.44 281.01 197.35 277.00 198.00 Z"
       id="path59" />
  </g>
  <g
     fill="None"
     fill-opacity="0.0"
     stroke="#45434C"
     stroke-opacity="1.00"
     stroke-width="0.3"
     id="g60">
    <path
       d=" M 259.00 209.00  C 262.72 206.38 262.50 209.02 265.00 209.00 C 267.85 208.03 271.04 206.36 274.00 206.00 C 275.61 205.80 277.38 206.00 279.00 206.00 C 280.00 206.00 281.00 206.00 282.00 206.00 C 285.95 205.13 293.01 203.16 296.00 206.00 C 296.50 206.00 297.50 206.00 298.00 206.00 C 301.03 206.00 304.37 206.56 307.00 205.00 C 304.95 203.66 306.05 202.44 304.00 201.00 C 304.00 201.00 303.49 200.95 303.00 201.00 C 298.61 201.48 295.16 199.38 291.00 201.00 C 294.69 198.61 290.22 199.84 289.00 198.00 C 285.42 197.33 280.65 197.80 277.00 198.00 C 269.09 198.50 260.94 200.85 255.00 206.00 C 257.11 207.11 261.16 203.24 261.00 207.00 C 259.94 207.11 259.45 208.20 259.00 209.00 Z"
       id="path60" />
  </g>
  <g
     fill="None"
     fill-opacity="0.0"
     stroke="#5E4F48"
     stroke-opacity="1.00"
     stroke-width="0.3"
     id="g61">
    <path
       d=" M 303.00 201.00  C 298.81 198.71 293.97 198.71 289.00 198.00 C 290.22 199.84 294.69 198.61 291.00 201.00 C 295.16 199.38 298.61 201.48 303.00 201.00 Z"
       id="path61" />
  </g>
  <g
     fill="None"
     fill-opacity="0.0"
     stroke="#5E4F48"
     stroke-opacity="1.00"
     stroke-width="0.3"
     id="g62">
    <path
       d=" M 298.00 206.00  C 301.01 209.15 300.22 217.88 300.00 222.00 C 302.64 217.82 300.12 211.72 300.00 207.00 C 301.66 207.07 303.34 206.91 305.00 207.00 C 305.91 207.05 307.12 206.77 308.00 207.00 C 307.67 205.45 308.08 203.59 308.00 202.00 C 306.46 201.98 305.47 201.20 304.00 201.00 C 306.05 202.44 304.95 203.66 307.00 205.00 C 304.37 206.56 301.03 206.00 298.00 206.00 Z"
       id="path62" />
  </g>
  <g
     fill="None"
     fill-opacity="0.0"
     stroke="#5E4F48"
     stroke-opacity="1.00"
     stroke-width="0.3"
     id="g63">
    <path
       d=" M 282.00 206.00  C 286.67 206.00 291.33 206.00 296.00 206.00 C 293.01 203.16 285.95 205.13 282.00 206.00 Z"
       id="path63" />
  </g>
  <g
     fill="None"
     fill-opacity="0.0"
     stroke="#D1B1A8"
     stroke-opacity="1.00"
     stroke-width="0.3"
     id="g64">
    <path
       d=" M 160.00 223.00  C 158.91 217.86 160.00 211.27 160.00 206.00 C 159.55 210.62 157.43 218.35 160.00 223.00 Z"
       id="path64" />
  </g>
  <g
     fill="None"
     fill-opacity="0.0"
     stroke="#5E4F48"
     stroke-opacity="1.00"
     stroke-width="0.3"
     id="g65">
    <path
       d=" M 273.00 220.00  C 273.12 216.02 273.94 206.95 279.00 206.00 C 277.38 206.00 275.61 205.80 274.00 206.00 C 273.39 210.66 272.67 215.11 273.00 220.00 Z"
       id="path65" />
  </g>
  <g
     fill="None"
     fill-opacity="0.0"
     stroke="#CC7291"
     stroke-opacity="1.00"
     stroke-width="0.3"
     id="g66">
    <path
       d=" M 273.00 220.00  C 273.48 227.02 276.97 241.07 285.99 241.99 C 295.02 242.92 299.64 228.59 300.00 222.00 C 300.22 217.88 301.01 209.15 298.00 206.00 C 297.50 206.00 296.50 206.00 296.00 206.00 C 291.33 206.00 286.67 206.00 282.00 206.00 C 281.00 206.00 280.00 206.00 279.00 206.00 C 273.94 206.95 273.12 216.02 273.00 220.00 Z"
       id="path66" />
  </g>
  <g
     fill="None"
     fill-opacity="0.0"
     stroke="#D1B1A8"
     stroke-opacity="1.00"
     stroke-width="0.3"
     id="g67">
    <path
       d=" M 362.00 217.00  C 362.59 213.34 362.53 209.70 362.00 206.00 C 362.14 209.61 362.20 213.39 362.00 217.00 Z"
       id="path67" />
  </g>
  <g
     fill="None"
     fill-opacity="0.0"
     stroke="#5E4F48"
     stroke-opacity="1.00"
     stroke-width="0.3"
     id="g68">
    <path
       d=" M 259.00 209.00  C 257.64 209.42 256.67 210.80 256.00 212.00 C 258.97 210.93 262.03 210.02 265.00 209.00 C 262.50 209.02 262.72 206.38 259.00 209.00 Z"
       id="path68" />
  </g>
  <g
     fill="None"
     fill-opacity="0.0"
     stroke="#D1B1A8"
     stroke-opacity="1.00"
     stroke-width="0.3"
     id="g69">
    <path
       d=" M 310.00 213.00  C 309.60 210.79 308.30 208.39 308.00 207.00 C 307.12 206.77 305.91 207.05 305.00 207.00 C 305.50 208.76 307.72 207.72 309.00 208.00 C 308.25 209.87 309.64 211.77 310.00 213.00 Z"
       id="path69" />
  </g>
  <g
     fill="None"
     fill-opacity="0.0"
     stroke="#D1B1A8"
     stroke-opacity="1.00"
     stroke-width="0.3"
     id="g70">
    <path
       d=" M 225.00 220.00  C 228.23 217.90 231.83 214.26 234.00 211.00 C 232.02 213.53 227.60 218.01 225.00 220.00 Z"
       id="path70" />
  </g>
  <g
     fill="None"
     fill-opacity="0.0"
     stroke="#5E4F48"
     stroke-opacity="1.00"
     stroke-width="0.3"
     id="g71">
    <path
       d=" M 132.00 221.00  C 130.21 225.90 132.48 233.96 136.00 238.00 C 134.48 232.36 132.16 226.97 132.00 221.00 Z"
       id="path71" />
  </g>
  <g
     fill="None"
     fill-opacity="0.0"
     stroke="#5E4F48"
     stroke-opacity="0.97"
     stroke-width="0.3"
     id="g72">
    <path
       d=" M 176.00 223.00  C 171.18 224.81 169.15 229.68 166.00 233.00 C 163.83 230.61 162.45 227.84 161.00 225.00 C 156.61 226.94 161.25 238.68 162.68 244.32 C 164.11 249.96 170.07 255.92 176.00 257.00 C 170.79 263.62 156.68 263.21 149.70 258.30 C 142.72 253.40 144.63 258.56 139.00 258.00 C 134.53 264.58 136.00 276.49 132.98 283.98 C 129.95 291.46 129.35 304.95 130.01 312.99 C 130.67 321.03 133.58 330.00 141.25 333.75 C 148.93 337.49 153.17 342.19 157.08 349.92 C 160.99 357.65 170.19 360.11 178.00 361.00 C 173.58 348.07 170.40 335.86 183.75 326.75 C 197.11 317.64 212.95 330.17 225.00 323.00 C 229.94 329.86 239.91 327.81 247.00 331.00 C 245.84 325.83 258.09 321.18 261.00 320.00 C 261.71 319.71 262.69 318.33 264.00 319.00 C 262.81 316.81 262.76 314.29 262.00 312.00 C 240.86 319.76 216.93 305.54 199.08 292.92 C 181.24 280.29 186.26 248.15 168.00 234.00 C 173.37 232.50 178.15 228.86 184.00 229.00 C 184.49 233.03 184.17 237.06 185.00 241.00 C 185.06 242.36 185.76 234.61 185.79 231.77 C 185.81 228.93 196.84 229.78 199.00 231.00 C 198.59 229.65 199.52 225.64 194.74 224.26 C 189.97 222.87 187.99 221.05 183.00 221.00 C 181.41 220.98 178.11 221.98 176.00 223.00 M 146.00 321.00  C 137.05 310.94 139.02 294.54 144.00 283.00 C 146.71 294.75 143.40 308.88 146.00 321.00 Z"
       id="path72" />
  </g>
  <g
     fill="None"
     fill-opacity="0.0"
     stroke="#D1B1A8"
     stroke-opacity="1.00"
     stroke-width="0.3"
     id="g73">
    <path
       d=" M 355.00 236.00  C 353.71 236.17 353.25 237.70 352.00 238.00 C 352.80 233.36 351.38 227.93 351.00 224.00 C 351.00 229.33 351.00 234.67 351.00 240.00 C 352.78 239.33 353.91 237.47 355.00 236.00 Z"
       id="path73" />
  </g>
  <g
     fill="None"
     fill-opacity="0.0"
     stroke="#CC7291"
     stroke-opacity="1.00"
     stroke-width="0.3"
     id="g74">
    <path
       d=" M 185.00 241.00  C 186.84 249.74 189.19 251.76 194.23 259.77 C 199.27 267.78 203.74 261.89 205.00 253.00 C 206.26 244.11 201.13 238.06 199.00 231.00 C 196.84 229.78 185.81 228.93 185.79 231.77 C 185.76 234.61 185.06 242.36 185.00 241.00 Z"
       id="path74" />
  </g>
  <g
     fill="None"
     fill-opacity="0.0"
     stroke="#000002"
     stroke-opacity="0.00"
     stroke-width="0.3"
     id="g75">
    <path
       d=" M 146.00 321.00  C 143.40 308.88 146.71 294.75 144.00 283.00 C 139.02 294.54 137.05 310.94 146.00 321.00 Z"
       id="path75" />
  </g>
  <g
     fill="None"
     fill-opacity="0.0"
     stroke="#D1B1A8"
     stroke-opacity="1.00"
     stroke-width="0.3"
     id="g76">
    <path
       d=" M 300.00 314.00  C 301.37 313.40 307.02 309.97 307.00 310.00 C 307.23 305.41 302.54 312.59 300.00 314.00 Z"
       id="path76" />
  </g>
  <g
     fill="None"
     fill-opacity="0.0"
     stroke="#D1B1A8"
     stroke-opacity="0.43"
     stroke-width="0.3"
     id="g77">
    <path
       d=" M 334.00 314.00  C 338.08 314.43 343.22 315.24 348.00 315.00 C 348.82 315.19 344.91 312.08 342.00 313.00 C 339.09 313.92 336.28 313.76 334.00 314.00 Z"
       id="path77" />
  </g>
  <g
     fill="None"
     fill-opacity="0.0"
     stroke="#D1B1A8"
     stroke-opacity="0.99"
     stroke-width="0.3"
     id="g78">
    <path
       d=" M 324.00 319.00  C 325.72 320.85 326.18 326.27 328.00 328.00 C 342.58 330.37 348.63 348.50 339.75 360.75 C 330.87 372.99 327.56 382.81 327.00 399.00 C 326.44 415.19 301.93 407.88 293.00 401.00 C 296.98 407.12 301.56 414.41 303.78 421.22 C 305.99 428.04 310.62 438.28 310.98 445.02 C 311.33 451.76 318.79 465.89 312.91 469.92 C 307.04 473.94 293.92 468.74 286.98 472.98 C 280.03 477.21 271.08 476.24 264.31 481.31 C 257.53 486.37 248.36 491.29 249.00 478.00 C 247.33 478.24 248.83 480.85 247.00 481.00 C 247.16 486.91 246.33 493.37 245.00 499.00 C 243.73 504.37 242.58 506.96 241.00 512.00 L 466.00 512.00 C 477.47 498.17 486.89 479.52 477.92 463.08 C 468.96 446.63 464.59 430.55 455.92 415.08 C 447.26 399.60 442.38 383.12 430.92 370.08 C 419.45 357.04 405.56 347.85 390.08 340.92 C 374.60 333.99 365.58 314.12 348.00 315.00 C 343.22 315.24 338.08 314.43 334.00 314.00 C 332.38 314.17 330.59 313.69 329.00 314.00 C 327.33 315.73 324.27 315.78 324.00 319.00 Z"
       id="path78" />
  </g>
  <g
     fill="None"
     fill-opacity="0.0"
     stroke="#F1E8E9"
     stroke-opacity="1.00"
     stroke-width="0.3"
     id="g79">
    <path
       d=" M 301.00 329.00  C 309.95 327.58 318.79 326.50 328.00 328.00 C 326.18 326.27 325.72 320.85 324.00 319.00 C 321.02 315.79 317.17 321.94 313.08 323.08 C 308.98 324.21 304.82 327.76 301.00 329.00 Z"
       id="path79" />
  </g>
  <g
     fill="None"
     fill-opacity="0.0"
     stroke="#B49486"
     stroke-opacity="1.00"
     stroke-width="0.3"
     id="g80">
    <path
       d=" M 261.00 320.00  C 264.33 322.09 257.20 327.46 258.00 332.00 C 261.69 328.71 264.54 324.30 264.00 319.00 C 262.69 318.33 261.71 319.71 261.00 320.00 Z"
       id="path80" />
  </g>
  <g
     fill="None"
     fill-opacity="0.0"
     stroke="#CC7291"
     stroke-opacity="1.00"
     stroke-width="0.3"
     id="g81">
    <path
       d=" M 178.00 361.00  C 180.50 368.29 182.18 375.23 183.00 383.00 C 183.51 387.87 180.83 398.05 185.75 402.25 C 190.68 406.44 199.91 402.84 205.00 401.00 C 192.28 423.26 171.42 442.93 166.00 469.00 C 172.10 465.08 183.81 467.78 190.00 469.00 C 197.75 470.38 205.54 473.20 212.00 478.00 C 213.86 479.39 220.07 487.18 222.00 485.00 C 225.85 478.39 224.71 467.52 228.32 460.32 C 231.93 453.12 232.61 444.24 235.78 436.78 C 238.94 429.31 239.81 420.42 242.98 412.98 C 246.14 405.53 248.70 398.33 252.00 391.00 C 253.06 409.85 248.60 430.37 248.00 450.00 C 248.00 459.17 248.83 469.66 247.00 478.00 C 247.00 479.00 246.97 480.00 247.00 481.00 C 248.83 480.85 247.33 478.24 249.00 478.00 C 248.36 491.29 257.53 486.37 264.31 481.31 C 271.08 476.24 280.03 477.21 286.98 472.98 C 293.92 468.74 307.04 473.94 312.91 469.92 C 318.79 465.89 311.33 451.76 310.98 445.02 C 310.62 438.28 305.99 428.04 303.78 421.22 C 301.56 414.41 296.98 407.12 293.00 401.00 C 301.93 407.88 326.44 415.19 327.00 399.00 C 327.56 382.81 330.87 372.99 339.75 360.75 C 348.63 348.50 342.58 330.37 328.00 328.00 C 318.79 326.50 309.95 327.58 301.00 329.00 C 297.33 329.58 293.56 330.08 290.00 331.00 C 288.59 331.36 287.53 331.74 286.00 332.00 C 280.92 332.86 276.22 333.80 271.00 334.00 C 268.53 334.35 265.06 334.79 262.00 335.00 C 254.78 335.49 253.24 333.57 247.00 331.00 C 239.91 327.81 229.94 329.86 225.00 323.00 C 212.95 330.17 197.11 317.64 183.75 326.75 C 170.40 335.86 173.58 348.07 178.00 361.00 Z"
       id="path81" />
  </g>
  <g
     fill="None"
     fill-opacity="0.0"
     stroke="#D1B1A8"
     stroke-opacity="1.00"
     stroke-width="0.3"
     id="g82">
    <path
       d=" M 286.00 332.00  C 287.53 331.74 288.59 331.36 290.00 331.00 C 291.74 330.18 293.41 328.07 295.00 327.00 C 292.27 328.47 288.67 331.05 286.00 332.00 Z"
       id="path82" />
  </g>
  <g
     fill="None"
     fill-opacity="0.0"
     stroke="#D1B1A8"
     stroke-opacity="1.00"
     stroke-width="0.3"
     id="g83">
    <path
       d=" M 262.00 335.00  C 265.06 334.79 268.53 334.35 271.00 334.00 C 267.81 334.12 264.59 334.54 262.00 335.00 Z"
       id="path83" />
  </g>
  <g
     fill="None"
     fill-opacity="0.0"
     stroke="#B49486"
     stroke-opacity="0.98"
     stroke-width="0.3"
     id="g84">
    <path
       d=" M 108.00 512.00  L 184.00 512.00 C 183.42 496.97 189.33 483.78 190.00 469.00 C 183.81 467.78 172.10 465.08 166.00 469.00 C 171.42 442.93 192.28 423.26 205.00 401.00 C 199.91 402.84 190.68 406.44 185.75 402.25 C 180.83 398.05 183.51 387.87 183.00 383.00 C 181.15 390.00 169.70 393.89 167.77 401.77 C 165.84 409.65 158.87 416.25 155.77 423.77 C 152.67 431.29 146.31 437.38 142.92 444.92 C 139.53 452.46 134.13 458.85 130.31 466.31 C 126.48 473.76 122.60 481.28 118.77 488.77 C 114.94 496.26 110.70 504.18 108.00 512.00 Z"
       id="path84" />
  </g>
  <g
     fill="None"
     fill-opacity="0.0"
     stroke="#45434C"
     stroke-opacity="1.00"
     stroke-width="0.3"
     id="g85">
    <path
       d=" M 222.00 485.00  C 219.58 489.15 214.20 479.92 212.00 478.00 C 205.54 473.20 197.75 470.38 190.00 469.00 C 189.33 483.78 183.42 496.97 184.00 512.00 L 233.00 512.00 C 232.77 507.46 238.72 509.82 241.00 508.00 C 242.43 505.50 244.17 501.45 245.00 499.00 C 246.33 493.37 247.16 486.91 247.00 481.00 C 246.97 480.00 247.00 479.00 247.00 478.00 C 247.00 468.67 247.17 458.56 248.00 450.00 C 248.60 430.37 253.06 409.85 252.00 391.00 C 248.70 398.33 246.14 405.53 242.98 412.98 C 239.81 420.42 238.94 429.31 235.78 436.78 C 232.61 444.24 231.93 453.12 228.32 460.32 C 224.71 467.52 225.85 478.39 222.00 485.00 Z"
       id="path85" />
  </g>
  <g
     fill="None"
     fill-opacity="0.0"
     stroke="#5E4F48"
     stroke-opacity="1.00"
     stroke-width="0.3"
     id="g86">
    <path
       d=" M 247.00 478.00  C 248.83 469.66 248.00 459.17 248.00 450.00 C 247.17 458.56 247.00 468.67 247.00 478.00 Z"
       id="path86" />
  </g>
  <g
     fill="None"
     fill-opacity="0.0"
     stroke="#5E4F48"
     stroke-opacity="1.00"
     stroke-width="0.3"
     id="g87">
    <path
       d=" M 222.00 485.00  C 220.07 487.18 213.86 479.39 212.00 478.00 C 214.20 479.92 219.58 489.15 222.00 485.00 Z"
       id="path87" />
  </g>
  <g
     fill="None"
     fill-opacity="0.0"
     stroke="#B49486"
     stroke-opacity="1.00"
     stroke-width="0.3"
     id="g88">
    <path
       d=" M 241.00 508.00  C 240.15 509.49 238.67 510.47 238.00 512.00 L 241.00 512.00 C 242.58 506.96 243.73 504.37 245.00 499.00 C 244.17 501.45 242.43 505.50 241.00 508.00 Z"
       id="path88" />
  </g>
  <g
     fill="None"
     fill-opacity="0.0"
     stroke="#5E4F48"
     stroke-opacity="1.00"
     stroke-width="0.3"
     id="g89">
    <path
       d=" M 233.00 512.00  L 238.00 512.00 C 238.67 510.47 240.15 509.49 241.00 508.00 C 238.72 509.82 232.77 507.46 233.00 512.00 Z"
       id="path89" />
  </g>
  <g
     fill="#000002"
     fill-opacity="0.00"
     stroke="None"
     id="g90">
    <path
       d=" M 0.00 512.00  L 108.00 512.00 C 110.70 504.18 114.94 496.26 118.77 488.77 C 122.60 481.28 126.48 473.76 130.31 466.31 C 134.13 458.85 139.53 452.46 142.92 444.92 C 146.31 437.38 152.67 431.29 155.77 423.77 C 158.87 416.25 165.84 409.65 167.77 401.77 C 169.70 393.89 181.15 390.00 183.00 383.00 C 182.18 375.23 180.50 368.29 178.00 361.00 C 170.19 360.11 160.99 357.65 157.08 349.92 C 153.17 342.19 148.93 337.49 141.25 333.75 C 133.58 330.00 130.67 321.03 130.01 312.99 C 129.35 304.95 129.95 291.46 132.98 283.98 C 136.00 276.49 134.53 264.58 139.00 258.00 C 121.56 256.28 101.04 238.36 95.07 220.93 C 89.10 203.50 96.92 172.87 109.30 158.30 C 121.69 143.74 132.73 127.22 143.77 111.77 C 154.81 96.32 167.98 81.25 185.70 72.70 C 203.41 64.14 227.72 54.38 248.00 53.00 C 253.52 52.62 259.48 52.70 265.00 53.00 C 289.66 54.34 315.00 65.85 335.08 78.92 C 355.16 91.98 365.83 117.58 392.00 119.00 C 395.57 119.19 399.43 119.24 403.00 119.00 C 405.00 118.86 406.77 117.41 409.00 118.00 C 406.91 129.46 393.44 133.30 383.00 132.00 C 393.87 156.84 387.91 192.52 402.77 215.23 C 417.63 237.94 420.54 276.25 391.00 285.00 C 399.05 278.72 398.61 267.12 395.00 258.00 C 390.94 269.80 387.16 282.95 375.92 290.92 C 364.68 298.89 351.14 306.93 337.00 301.00 C 334.95 305.73 331.73 309.69 329.00 314.00 C 330.59 313.69 332.38 314.17 334.00 314.00 C 336.28 313.76 339.09 313.92 342.00 313.00 C 344.91 312.08 348.82 315.19 348.00 315.00 C 365.58 314.12 374.60 333.99 390.08 340.92 C 405.56 347.85 419.45 357.04 430.92 370.08 C 442.38 383.12 447.26 399.60 455.92 415.08 C 464.59 430.55 468.96 446.63 477.92 463.08 C 486.89 479.52 477.47 498.17 466.00 512.00 L 512.00 512.00 L 512.00 0.00 L 0.00 0.00 L 0.00 512.00 Z"
       id="path90" />
  </g>
  <g
     fill="#B49486"
     fill-opacity="0.98"
     stroke="None"
     id="g91">
    <path
       d="m 139,258 c 5.63,0.56 3.72,-4.6 10.7,0.3 6.98,4.91 21.09,5.32 26.3,-1.3 -5.93,-1.08 -11.89,-7.04 -13.32,-12.68 -1.43,-5.64 -6.07,-17.38 -1.68,-19.32 -0.34,-0.67 -0.65,-1.37 -1,-2 -2.57,-4.65 -0.45,-12.38 0,-17 0,-6.23 1.02,-13.24 3,-19 0.43,-1.24 -0.5,-3.56 2,-3 v 8 c 0.11,5.58 3.34,12.21 3.93,17.07 0.58,4.86 7.98,10.1 7.07,13.93 2.11,-1.02 5.41,-2.02 7,-2 -4.18,-2.12 -3,-7.37 -3,-12 -0.52,-5.35 -0.51,-11.72 0,-17 v -8 c 0.59,20.78 21.12,55.03 45,36 2.6,-1.99 7.02,-6.47 9,-9 8.56,-12.87 11.79,-27.73 13,-43 0.28,-3.58 0.72,-8.09 1,-11 v -11 c -0.27,-2.76 -1.46,-6.51 -1,-10 0.17,-1.31 -0.13,-2.68 0,-4 10.72,11.42 20.64,21.96 32.25,32.75 11.61,10.79 30.82,18.08 28.75,37.25 0.08,1.59 -0.33,3.45 0,5 0.3,1.39 1.6,3.79 2,6 3.36,18.76 0.44,44.34 -3.33,61.67 C 302.91,292 300.2,311.42 281,316 c 5.58,5.08 12.95,-0.98 19,-2 2.54,-1.41 7.23,-8.59 7,-4 -0.34,6.69 -6.48,14.02 -12,17 -1.59,1.07 -3.26,3.18 -5,4 3.56,-0.92 7.33,-1.42 11,-2 3.82,-1.24 7.98,-4.79 12.08,-5.92 4.09,-1.14 7.94,-7.29 10.92,-4.08 0.27,-3.22 3.33,-3.27 5,-5 2.73,-4.31 5.95,-8.27 8,-13 14.14,5.93 27.68,-2.11 38.92,-10.08 11.24,-7.97 15.02,-21.12 19.08,-32.92 3.61,9.12 4.05,20.72 -4,27 29.54,-8.75 26.63,-47.06 11.77,-69.77 -14.86,-22.71 -8.9,-58.39 -19.77,-83.23 10.44,1.3 23.91,-2.54 26,-14 -2.23,-0.59 -4,0.86 -6,1 -2.27,0.69 -2.04,1.21 -5.01,1.99 C 395.03,121.77 393.1,119.32 392,119 365.83,117.58 355.16,91.98 335.08,78.92 315,65.85 289.66,54.34 265,53 c -4.97,0.21 -12.12,0.14 -17,0 -20.28,1.38 -44.59,11.14 -62.3,19.7 -17.72,8.55 -30.89,23.62 -41.93,39.07 -11.04,15.45 -22.08,31.97 -34.47,46.53 -12.38,14.57 -20.2,45.2 -14.23,62.63 5.97,17.43 26.49,35.35 43.93,37.07 m 215,-70 c 5.09,3.82 7.77,11.89 8,18 0.53,3.7 0.59,7.34 0,11 -0.4,7.37 -2.63,13.13 -7,19 -1.09,1.47 -2.22,3.33 -4,4 v -16 c 0,-11.52 -2.5,-22.64 -3,-34 -0.19,-4.4 1.98,-5.02 6,-2 m -235,1 c -2.85,17.04 -1.43,35.89 10,49 -15.57,-10.94 -16.27,-33.41 -10,-49 m 96,30 c 5.39,-7.12 10.37,-14.58 13,-23 1.61,7.94 -4.28,20.24 -13,23 m -83,2 c 0.16,5.97 2.48,11.36 4,17 -3.52,-4.04 -5.79,-12.1 -4,-17 z"
       id="path91"
       sodipodi:nodetypes="cccscccccccccccccccccccsccccccccccccccsccscccccccccscsccccccsccccccccccc" />
  </g>
  <g
     fill="#5E4F48"
     fill-opacity="0.22"
     stroke="None"
     id="g92">
    <path
       d=" M 265.00 53.00  C 259.48 52.70 253.52 52.62 248.00 53.00 C 252.88 53.14 260.03 53.21 265.00 53.00 Z"
       id="path92" />
  </g>
  <g
     fill="#D1B1A8"
     fill-opacity="0.32"
     stroke="None"
     id="g121">
    <path
       d=" M 403.00 119.00  C 399.43 119.24 395.57 119.19 392.00 119.00 C 393.10 119.32 395.03 121.77 397.99 120.99 C 400.96 120.21 400.73 119.69 403.00 119.00 Z"
       id="path121" />
  </g>
  <g
     fill="#F1E8E9"
     fill-opacity="1.00"
     stroke="None"
     id="g128">
    <path
       d=" M 247.00 136.00  C 246.96 138.36 248.00 142.87 248.00 146.00 C 248.00 149.67 248.00 153.33 248.00 157.00 C 248.00 160.89 247.62 164.80 247.00 168.00 C 245.79 183.27 242.56 198.13 234.00 211.00 C 231.83 214.26 228.23 217.90 225.00 220.00 C 201.12 239.03 180.59 204.78 180.00 184.00 C 180.00 186.67 180.00 189.33 180.00 192.00 C 180.00 197.67 180.00 203.33 180.00 209.00 C 180.00 213.63 178.82 218.88 183.00 221.00 C 187.99 221.05 189.97 222.87 194.74 224.26 C 199.52 225.64 198.59 229.65 199.00 231.00 C 201.13 238.06 206.26 244.11 205.00 253.00 C 203.74 261.89 199.27 267.78 194.23 259.77 C 189.19 251.76 186.84 249.74 185.00 241.00 C 184.17 237.06 184.49 233.03 184.00 229.00 C 178.15 228.86 173.37 232.50 168.00 234.00 C 186.26 248.15 181.24 280.29 199.08 292.92 C 216.93 305.54 240.86 319.76 262.00 312.00 C 262.76 314.29 262.81 316.81 264.00 319.00 C 264.54 324.30 261.69 328.71 258.00 332.00 C 257.20 327.46 264.33 322.09 261.00 320.00 C 258.09 321.18 245.84 325.83 247.00 331.00 C 253.24 333.57 254.78 335.49 262.00 335.00 C 264.59 334.54 267.81 334.12 271.00 334.00 C 276.22 333.80 280.92 332.86 286.00 332.00 C 288.67 331.05 292.27 328.47 295.00 327.00 C 300.52 324.02 306.66 316.69 307.00 310.00 C 307.02 309.97 301.37 313.40 300.00 314.00 C 293.95 315.02 286.58 321.08 281.00 316.00 C 300.20 311.42 302.91 292.00 306.67 274.67 C 310.44 257.34 313.36 231.76 310.00 213.00 C 309.64 211.77 308.25 209.87 309.00 208.00 C 307.72 207.72 305.50 208.76 305.00 207.00 C 303.34 206.91 301.66 207.07 300.00 207.00 C 300.12 211.72 302.64 217.82 300.00 222.00 C 299.64 228.59 295.02 242.92 285.99 241.99 C 276.97 241.07 273.48 227.02 273.00 220.00 C 272.67 215.11 273.39 210.66 274.00 206.00 C 271.04 206.36 267.85 208.03 265.00 209.00 C 262.03 210.02 258.97 210.93 256.00 212.00 C 256.67 210.80 257.64 209.42 259.00 209.00 C 259.45 208.20 259.94 207.11 261.00 207.00 C 261.16 203.24 257.11 207.11 255.00 206.00 C 260.94 200.85 269.09 198.50 277.00 198.00 C 281.01 197.35 285.07 197.44 289.00 198.00 C 293.97 198.71 298.81 198.71 303.00 201.00 C 303.49 200.95 304.00 201.00 304.00 201.00 C 305.47 201.20 306.46 201.98 308.00 202.00 C 310.07 182.83 290.86 175.54 279.25 164.75 C 267.64 153.96 257.72 143.42 247.00 132.00 C 246.87 133.32 247.17 134.69 247.00 136.00 Z"
       id="path128" />
  </g>
  <g
     fill="#D1B1A8"
     fill-opacity="1.00"
     stroke="None"
     id="g130">
    <path
       d=" M 248.00 146.00  C 248.00 142.87 246.96 138.36 247.00 136.00 C 246.54 139.49 247.73 143.24 248.00 146.00 Z"
       id="path130" />
  </g>
  <g
     fill="#D1B1A8"
     fill-opacity="1.00"
     stroke="None"
     id="g139">
    <path
       d=" M 247.00 168.00  C 247.62 164.80 248.00 160.89 248.00 157.00 C 247.72 159.91 247.28 164.42 247.00 168.00 Z"
       id="path139" />
  </g>
  <g
     fill="#D1B1A8"
     fill-opacity="1.00"
     stroke="None"
     id="g141">
    <path
       d=" M 163.00 187.00  C 163.00 187.89 164.85 191.12 165.00 192.00 C 165.00 189.33 165.00 186.67 165.00 184.00 C 162.50 183.44 163.43 185.76 163.00 187.00 Z"
       id="path141" />
  </g>
  <g
     fill="#D1B1A8"
     fill-opacity="1.00"
     stroke="None"
     id="g142">
    <path
       d=" M 348.00 190.00  C 348.25 189.06 347.80 187.95 348.00 187.00 C 350.12 186.94 352.23 186.77 354.00 188.00 C 349.98 184.98 347.81 185.60 348.00 190.00 Z"
       id="path142" />
  </g>
  <g
     fill="#F1E8E9"
     fill-opacity="1.00"
     stroke="None"
     id="g143">
    <path
       d=" M 160.00 206.00  C 160.00 211.27 158.91 217.86 160.00 223.00 C 160.35 223.63 160.66 224.33 161.00 225.00 C 162.45 227.84 163.83 230.61 166.00 233.00 C 169.15 229.68 171.18 224.81 176.00 223.00 C 176.91 219.17 169.51 213.93 168.93 209.07 C 168.34 204.21 165.11 197.58 165.00 192.00 C 164.85 191.12 163.00 187.89 163.00 187.00 C 161.02 192.76 160.00 199.77 160.00 206.00 Z"
       id="path143" />
  </g>
  <g
     fill="#F1E8E9"
     fill-opacity="1.00"
     stroke="None"
     id="g144">
    <path
       d=" M 348.00 190.00  C 348.50 201.36 351.00 212.48 351.00 224.00 C 351.38 227.93 352.80 233.36 352.00 238.00 C 353.25 237.70 353.71 236.17 355.00 236.00 C 359.37 230.13 361.60 224.37 362.00 217.00 C 362.20 213.39 362.14 209.61 362.00 206.00 C 361.77 199.89 359.09 191.82 354.00 188.00 C 352.23 186.77 350.12 186.94 348.00 187.00 C 347.80 187.95 348.25 189.06 348.00 190.00 Z"
       id="path144" />
  </g>
  <g
     fill="#5E4F48"
     fill-opacity="1.00"
     stroke="None"
     id="g145">
    <path
       d=" M 119.00 189.00  C 112.73 204.59 113.43 227.06 129.00 238.00 C 117.57 224.89 116.15 206.04 119.00 189.00 Z"
       id="path145" />
  </g>
  <g
     fill="#D1B1A8"
     fill-opacity="1.00"
     stroke="None"
     id="g146">
    <path
       d=" M 180.00 209.00  C 180.00 203.33 180.00 197.67 180.00 192.00 C 179.49 197.28 179.48 203.65 180.00 209.00 Z"
       id="path146" />
  </g>
  <g
     fill="#F1E8E9"
     fill-opacity="1.00"
     stroke="None"
     id="g147">
    <path
       d=" M 215.00 219.00  C 223.72 216.24 229.61 203.94 228.00 196.00 C 225.37 204.42 220.39 211.88 215.00 219.00 Z"
       id="path147" />
  </g>
  <g
     fill="#B49486"
     fill-opacity="1.00"
     stroke="None"
     id="g148">
    <path
       d=" M 277.00 198.00  C 280.65 197.80 285.42 197.33 289.00 198.00 C 285.07 197.44 281.01 197.35 277.00 198.00 Z"
       id="path148" />
  </g>
  <g
     fill="#45434C"
     fill-opacity="1.00"
     stroke="None"
     id="g149"
     style="fill:#5e4e48;fill-opacity:0.97254902">
    <path
       d=" M 259.00 209.00  C 262.72 206.38 262.50 209.02 265.00 209.00 C 267.85 208.03 271.04 206.36 274.00 206.00 C 275.61 205.80 277.38 206.00 279.00 206.00 C 280.00 206.00 281.00 206.00 282.00 206.00 C 285.95 205.13 293.01 203.16 296.00 206.00 C 296.50 206.00 297.50 206.00 298.00 206.00 C 301.03 206.00 304.37 206.56 307.00 205.00 C 304.95 203.66 306.05 202.44 304.00 201.00 C 304.00 201.00 303.49 200.95 303.00 201.00 C 298.61 201.48 295.16 199.38 291.00 201.00 C 294.69 198.61 290.22 199.84 289.00 198.00 C 285.42 197.33 280.65 197.80 277.00 198.00 C 269.09 198.50 260.94 200.85 255.00 206.00 C 257.11 207.11 261.16 203.24 261.00 207.00 C 259.94 207.11 259.45 208.20 259.00 209.00 Z"
       id="path149"
       style="fill:#5e4e48;fill-opacity:0.97254902" />
  </g>
  <g
     fill="#5E4F48"
     fill-opacity="1.00"
     stroke="None"
     id="g150">
    <path
       d=" M 303.00 201.00  C 298.81 198.71 293.97 198.71 289.00 198.00 C 290.22 199.84 294.69 198.61 291.00 201.00 C 295.16 199.38 298.61 201.48 303.00 201.00 Z"
       id="path150" />
  </g>
  <g
     fill="#5E4F48"
     fill-opacity="1.00"
     stroke="None"
     id="g151">
    <path
       d=" M 298.00 206.00  C 301.01 209.15 300.22 217.88 300.00 222.00 C 302.64 217.82 300.12 211.72 300.00 207.00 C 301.66 207.07 303.34 206.91 305.00 207.00 C 305.91 207.05 307.12 206.77 308.00 207.00 C 307.67 205.45 308.08 203.59 308.00 202.00 C 306.46 201.98 305.47 201.20 304.00 201.00 C 306.05 202.44 304.95 203.66 307.00 205.00 C 304.37 206.56 301.03 206.00 298.00 206.00 Z"
       id="path151" />
  </g>
  <g
     fill="#5E4F48"
     fill-opacity="1.00"
     stroke="None"
     id="g152">
    <path
       d=" M 282.00 206.00  C 286.67 206.00 291.33 206.00 296.00 206.00 C 293.01 203.16 285.95 205.13 282.00 206.00 Z"
       id="path152" />
  </g>
  <g
     fill="#D1B1A8"
     fill-opacity="1.00"
     stroke="None"
     id="g153">
    <path
       d=" M 160.00 223.00  C 158.91 217.86 160.00 211.27 160.00 206.00 C 159.55 210.62 157.43 218.35 160.00 223.00 Z"
       id="path153" />
  </g>
  <g
     fill="#5E4F48"
     fill-opacity="1.00"
     stroke="None"
     id="g154">
    <path
       d=" M 273.00 220.00  C 273.12 216.02 273.94 206.95 279.00 206.00 C 277.38 206.00 275.61 205.80 274.00 206.00 C 273.39 210.66 272.67 215.11 273.00 220.00 Z"
       id="path154" />
  </g>
  <g
     fill="#CC7291"
     fill-opacity="1.00"
     stroke="None"
     id="g155">
    <path
       d=" M 273.00 220.00  C 273.48 227.02 276.97 241.07 285.99 241.99 C 295.02 242.92 299.64 228.59 300.00 222.00 C 300.22 217.88 301.01 209.15 298.00 206.00 C 297.50 206.00 296.50 206.00 296.00 206.00 C 291.33 206.00 286.67 206.00 282.00 206.00 C 281.00 206.00 280.00 206.00 279.00 206.00 C 273.94 206.95 273.12 216.02 273.00 220.00 Z"
       id="path155" />
  </g>
  <g
     fill="#D1B1A8"
     fill-opacity="1.00"
     stroke="None"
     id="g156">
    <path
       d=" M 362.00 217.00  C 362.59 213.34 362.53 209.70 362.00 206.00 C 362.14 209.61 362.20 213.39 362.00 217.00 Z"
       id="path156" />
  </g>
  <g
     fill="#5E4F48"
     fill-opacity="1.00"
     stroke="None"
     id="g157">
    <path
       d=" M 259.00 209.00  C 257.64 209.42 256.67 210.80 256.00 212.00 C 258.97 210.93 262.03 210.02 265.00 209.00 C 262.50 209.02 262.72 206.38 259.00 209.00 Z"
       id="path157" />
  </g>
  <g
     fill="#D1B1A8"
     fill-opacity="1.00"
     stroke="None"
     id="g158">
    <path
       d=" M 310.00 213.00  C 309.60 210.79 308.30 208.39 308.00 207.00 C 307.12 206.77 305.91 207.05 305.00 207.00 C 305.50 208.76 307.72 207.72 309.00 208.00 C 308.25 209.87 309.64 211.77 310.00 213.00 Z"
       id="path158" />
  </g>
  <g
     fill="#D1B1A8"
     fill-opacity="1.00"
     stroke="None"
     id="g159">
    <path
       d=" M 225.00 220.00  C 228.23 217.90 231.83 214.26 234.00 211.00 C 232.02 213.53 227.60 218.01 225.00 220.00 Z"
       id="path159" />
  </g>
  <g
     fill="#5E4F48"
     fill-opacity="1.00"
     stroke="None"
     id="g160">
    <path
       d=" M 132.00 221.00  C 130.21 225.90 132.48 233.96 136.00 238.00 C 134.48 232.36 132.16 226.97 132.00 221.00 Z"
       id="path160" />
  </g>
  <g
     fill="#5E4F48"
     fill-opacity="0.97"
     stroke="None"
     id="g161">
    <path
       d=" M 176.00 223.00  C 171.18 224.81 169.15 229.68 166.00 233.00 C 163.83 230.61 162.45 227.84 161.00 225.00 C 156.61 226.94 161.25 238.68 162.68 244.32 C 164.11 249.96 170.07 255.92 176.00 257.00 C 170.79 263.62 156.68 263.21 149.70 258.30 C 142.72 253.40 144.63 258.56 139.00 258.00 C 134.53 264.58 136.00 276.49 132.98 283.98 C 129.95 291.46 129.35 304.95 130.01 312.99 C 130.67 321.03 133.58 330.00 141.25 333.75 C 148.93 337.49 153.17 342.19 157.08 349.92 C 160.99 357.65 170.19 360.11 178.00 361.00 C 173.58 348.07 170.40 335.86 183.75 326.75 C 197.11 317.64 212.95 330.17 225.00 323.00 C 229.94 329.86 239.91 327.81 247.00 331.00 C 245.84 325.83 258.09 321.18 261.00 320.00 C 261.71 319.71 262.69 318.33 264.00 319.00 C 262.81 316.81 262.76 314.29 262.00 312.00 C 240.86 319.76 216.93 305.54 199.08 292.92 C 181.24 280.29 186.26 248.15 168.00 234.00 C 173.37 232.50 178.15 228.86 184.00 229.00 C 184.49 233.03 184.17 237.06 185.00 241.00 C 185.06 242.36 185.76 234.61 185.79 231.77 C 185.81 228.93 196.84 229.78 199.00 231.00 C 198.59 229.65 199.52 225.64 194.74 224.26 C 189.97 222.87 187.99 221.05 183.00 221.00 C 181.41 220.98 178.11 221.98 176.00 223.00 M 146.00 321.00  C 137.05 310.94 139.02 294.54 144.00 283.00 C 146.71 294.75 143.40 308.88 146.00 321.00 Z"
       id="path161" />
  </g>
  <g
     fill="#D1B1A8"
     fill-opacity="1.00"
     stroke="None"
     id="g162">
    <path
       d=" M 355.00 236.00  C 353.71 236.17 353.25 237.70 352.00 238.00 C 352.80 233.36 351.38 227.93 351.00 224.00 C 351.00 229.33 351.00 234.67 351.00 240.00 C 352.78 239.33 353.91 237.47 355.00 236.00 Z"
       id="path162" />
  </g>
  <g
     fill="#CC7291"
     fill-opacity="1.00"
     stroke="None"
     id="g163">
    <path
       d=" M 185.00 241.00  C 186.84 249.74 189.19 251.76 194.23 259.77 C 199.27 267.78 203.74 261.89 205.00 253.00 C 206.26 244.11 201.13 238.06 199.00 231.00 C 196.84 229.78 185.81 228.93 185.79 231.77 C 185.76 234.61 185.06 242.36 185.00 241.00 Z"
       id="path163" />
  </g>
  <g
     fill="#000002"
     fill-opacity="0.00"
     stroke="None"
     id="g164">
    <path
       d=" M 146.00 321.00  C 143.40 308.88 146.71 294.75 144.00 283.00 C 139.02 294.54 137.05 310.94 146.00 321.00 Z"
       id="path164" />
  </g>
  <g
     fill="#D1B1A8"
     fill-opacity="1.00"
     stroke="None"
     id="g165">
    <path
       d=" M 300.00 314.00  C 301.37 313.40 307.02 309.97 307.00 310.00 C 307.23 305.41 302.54 312.59 300.00 314.00 Z"
       id="path165" />
  </g>
  <g
     fill="#D1B1A8"
     fill-opacity="0.43"
     stroke="None"
     id="g166">
    <path
       d=" M 334.00 314.00  C 338.08 314.43 343.22 315.24 348.00 315.00 C 348.82 315.19 344.91 312.08 342.00 313.00 C 339.09 313.92 336.28 313.76 334.00 314.00 Z"
       id="path166" />
  </g>
  <g
     fill="#D1B1A8"
     fill-opacity="0.99"
     stroke="None"
     id="g167">
    <path
       d=" M 324.00 319.00  C 325.72 320.85 326.18 326.27 328.00 328.00 C 342.58 330.37 348.63 348.50 339.75 360.75 C 330.87 372.99 327.56 382.81 327.00 399.00 C 326.44 415.19 301.93 407.88 293.00 401.00 C 296.98 407.12 301.56 414.41 303.78 421.22 C 305.99 428.04 310.62 438.28 310.98 445.02 C 311.33 451.76 318.79 465.89 312.91 469.92 C 307.04 473.94 293.92 468.74 286.98 472.98 C 280.03 477.21 271.08 476.24 264.31 481.31 C 257.53 486.37 248.36 491.29 249.00 478.00 C 247.33 478.24 248.83 480.85 247.00 481.00 C 247.16 486.91 246.33 493.37 245.00 499.00 C 243.73 504.37 242.58 506.96 241.00 512.00 L 466.00 512.00 C 477.47 498.17 486.89 479.52 477.92 463.08 C 468.96 446.63 464.59 430.55 455.92 415.08 C 447.26 399.60 442.38 383.12 430.92 370.08 C 419.45 357.04 405.56 347.85 390.08 340.92 C 374.60 333.99 365.58 314.12 348.00 315.00 C 343.22 315.24 338.08 314.43 334.00 314.00 C 332.38 314.17 330.59 313.69 329.00 314.00 C 327.33 315.73 324.27 315.78 324.00 319.00 Z"
       id="path167" />
  </g>
  <g
     fill="#F1E8E9"
     fill-opacity="1.00"
     stroke="None"
     id="g168">
    <path
       d=" M 301.00 329.00  C 309.95 327.58 318.79 326.50 328.00 328.00 C 326.18 326.27 325.72 320.85 324.00 319.00 C 321.02 315.79 317.17 321.94 313.08 323.08 C 308.98 324.21 304.82 327.76 301.00 329.00 Z"
       id="path168" />
  </g>
  <g
     fill="#B49486"
     fill-opacity="1.00"
     stroke="None"
     id="g169">
    <path
       d=" M 261.00 320.00  C 264.33 322.09 257.20 327.46 258.00 332.00 C 261.69 328.71 264.54 324.30 264.00 319.00 C 262.69 318.33 261.71 319.71 261.00 320.00 Z"
       id="path169" />
  </g>
  <g
     fill="#CC7291"
     fill-opacity="1.00"
     stroke="None"
     id="g170">
    <path
       d="m 178,361 c 2.5,7.29 4.18,14.23 5,22 0.51,4.87 -2.17,15.05 2.75,19.25 4.93,4.19 14.16,0.59 19.25,-1.25 -12.72,22.26 -33.58,41.93 -39,68 6.1,-3.92 17.81,-1.22 24,0 7.75,1.38 15.54,4.2 22,9 1.86,1.39 8.07,9.18 10,7 3.85,-6.61 2.71,-17.48 6.32,-24.68 3.61,-7.2 4.29,-16.08 7.46,-23.54 3.16,-7.47 4.03,-16.36 7.2,-23.8 3.16,-7.45 5.72,-14.65 9.02,-21.98 1.06,18.85 -3.4,39.37 -4,59 0,9.17 0.83,19.66 -1,28 0,1 -0.03,2 0,3 1.83,-0.15 0.33,-2.76 2,-3 -0.64,13.29 8.53,8.37 15.31,3.31 6.77,-5.07 15.72,-4.1 22.67,-8.33 6.94,-4.24 20.06,0.96 25.93,-3.06 5.88,-4.03 -1.58,-18.16 -1.93,-24.9 -0.36,-6.74 -4.99,-16.98 -7.2,-23.8 -2.22,-6.81 -6.8,-14.1 -10.78,-20.22 8.93,6.88 33.44,14.19 34,-2 0.56,-16.19 3.87,-26.01 12.75,-38.25 8.88,-12.25 2.83,-30.38 -11.75,-32.75 -9.21,-1.5 -18.05,-0.42 -27,1 -3.67,0.58 -7.44,1.08 -11,2 -1.41,0.36 -2.47,0.74 -4,1 -5.08,0.86 -9.78,1.8 -15,2 -2.47,0.35 -5.94,0.79 -9,1 -7.22,0.49 -8.76,-1.43 -15,-4 -7.09,-3.19 -12.28703,-5.29425 -22,-8 -12.05,-2.72949 -27.89,-5.36 -41.25,3.75 -13.35,9.11 -10.17,21.32 -5.75,34.25 z"
       id="path170"
       sodipodi:nodetypes="ccccccccscccccccccccccsccccccccccc" />
  </g>
  <g
     fill="#D1B1A8"
     fill-opacity="1.00"
     stroke="None"
     id="g171">
    <path
       d=" M 286.00 332.00  C 287.53 331.74 288.59 331.36 290.00 331.00 C 291.74 330.18 293.41 328.07 295.00 327.00 C 292.27 328.47 288.67 331.05 286.00 332.00 Z"
       id="path171" />
  </g>
  <g
     fill="#D1B1A8"
     fill-opacity="1.00"
     stroke="None"
     id="g172">
    <path
       d=" M 262.00 335.00  C 265.06 334.79 268.53 334.35 271.00 334.00 C 267.81 334.12 264.59 334.54 262.00 335.00 Z"
       id="path172" />
  </g>
  <g
     fill="#B49486"
     fill-opacity="0.98"
     stroke="None"
     id="g173">
    <path
       d=" M 108.00 512.00  L 184.00 512.00 C 183.42 496.97 189.33 483.78 190.00 469.00 C 183.81 467.78 172.10 465.08 166.00 469.00 C 171.42 442.93 192.28 423.26 205.00 401.00 C 199.91 402.84 190.68 406.44 185.75 402.25 C 180.83 398.05 183.51 387.87 183.00 383.00 C 181.15 390.00 169.70 393.89 167.77 401.77 C 165.84 409.65 158.87 416.25 155.77 423.77 C 152.67 431.29 146.31 437.38 142.92 444.92 C 139.53 452.46 134.13 458.85 130.31 466.31 C 126.48 473.76 122.60 481.28 118.77 488.77 C 114.94 496.26 110.70 504.18 108.00 512.00 Z"
       id="path173" />
  </g>
  <g
     fill="#45434C"
     fill-opacity="1.00"
     stroke="None"
     id="g174">
    <path
       d=" M 222.00 485.00  C 219.58 489.15 214.20 479.92 212.00 478.00 C 205.54 473.20 197.75 470.38 190.00 469.00 C 189.33 483.78 183.42 496.97 184.00 512.00 L 233.00 512.00 C 232.77 507.46 238.72 509.82 241.00 508.00 C 242.43 505.50 244.17 501.45 245.00 499.00 C 246.33 493.37 247.16 486.91 247.00 481.00 C 246.97 480.00 247.00 479.00 247.00 478.00 C 247.00 468.67 247.17 458.56 248.00 450.00 C 248.60 430.37 253.06 409.85 252.00 391.00 C 248.70 398.33 246.14 405.53 242.98 412.98 C 239.81 420.42 238.94 429.31 235.78 436.78 C 232.61 444.24 231.93 453.12 228.32 460.32 C 224.71 467.52 225.85 478.39 222.00 485.00 Z"
       id="path174" />
  </g>
  <g
     fill="#5E4F48"
     fill-opacity="1.00"
     stroke="None"
     id="g175">
    <path
       d=" M 247.00 478.00  C 248.83 469.66 248.00 459.17 248.00 450.00 C 247.17 458.56 247.00 468.67 247.00 478.00 Z"
       id="path175" />
  </g>
  <g
     fill="#5E4F48"
     fill-opacity="1.00"
     stroke="None"
     id="g176">
    <path
       d=" M 222.00 485.00  C 220.07 487.18 213.86 479.39 212.00 478.00 C 214.20 479.92 219.58 489.15 222.00 485.00 Z"
       id="path176" />
  </g>
  <g
     fill="#B49486"
     fill-opacity="1.00"
     stroke="None"
     id="g177">
    <path
       d=" M 241.00 508.00  C 240.15 509.49 238.67 510.47 238.00 512.00 L 241.00 512.00 C 242.58 506.96 243.73 504.37 245.00 499.00 C 244.17 501.45 242.43 505.50 241.00 508.00 Z"
       id="path177" />
  </g>
  <g
     fill="#5E4F48"
     fill-opacity="1.00"
     stroke="None"
     id="g178">
    <path
       d=" M 233.00 512.00  L 238.00 512.00 C 238.67 510.47 240.15 509.49 241.00 508.00 C 238.72 509.82 232.77 507.46 233.00 512.00 Z"
       id="path178" />
  </g>
</svg>
